<?xml version="1.0" standalone="no"?>
<!DOCTYPE svg PUBLIC "-//W3C//DTD SVG 20010904//EN"
 "http://www.w3.org/TR/2001/REC-SVG-20010904/DTD/svg10.dtd">
<svg version="1.0" xmlns="http://www.w3.org/2000/svg"
 width="1280.000000pt" height="640.000000pt" viewBox="0 0 1280.000000 640.000000"
 preserveAspectRatio="xMidYMid meet">
<g transform="translate(0.000000,640.000000) scale(0.100000,-0.100000)"
fill="#000000" stroke="none">
<path d="M7270 5329 c-349 -14 -657 -42 -831 -75 -185 -35 -565 -154 -723
-227 -130 -60 -736 -436 -1194 -739 -139 -93 -279 -181 -310 -197 -122 -61
-223 -81 -527 -101 -88 -6 -194 -18 -235 -26 -41 -8 -298 -39 -570 -69 -1261
-139 -1655 -221 -2225 -465 -319 -137 -527 -263 -592 -358 -33 -50 -63 -224
-63 -367 0 -86 7 -125 56 -319 56 -220 56 -221 52 -346 -3 -97 -13 -166 -43
-303 -43 -200 -43 -200 31 -217 64 -15 814 -12 844 3 14 7 36 29 49 50 13 20
29 37 35 37 6 -1 27 -26 46 -57 85 -136 287 -304 450 -374 142 -60 248 -81
410 -82 159 -1 229 9 357 53 204 70 410 227 526 403 l38 57 3232 0 c1778 0
3237 -4 3242 -8 6 -4 32 -37 58 -73 147 -209 364 -359 612 -426 89 -23 119
-26 265 -26 146 -1 176 2 261 25 130 35 231 79 324 140 95 62 210 169 277 258
58 76 141 238 164 318 25 87 31 90 112 64 57 -18 92 -22 204 -22 146 0 351 14
463 31 194 29 319 85 413 183 169 176 223 445 238 1186 6 307 10 354 54 550
38 168 36 202 -16 302 -8 16 -19 48 -23 71 l-7 42 -174 -4 c-173 -3 -311 6
-525 35 -365 49 -649 131 -985 286 -893 412 -1531 640 -1970 707 -446 68
-1243 103 -1800 80z m-5187 -2393 c90 -18 150 -41 145 -58 -2 -7 -74 -154
-161 -325 -110 -219 -162 -313 -174 -313 -13 0 -343 102 -635 196 -31 10 -48
21 -48 31 0 24 63 131 112 190 186 223 483 332 761 279z m8303 3 c138 -24 364
-126 364 -164 0 -19 -477 -519 -499 -523 -17 -2 -592 386 -598 405 -2 5 16 29
39 53 182 182 453 272 694 229z m-8057 -90 c241 -136 386 -362 415 -646 12
-111 -27 -327 -60 -340 -16 -6 -640 304 -647 322 -5 12 201 665 215 683 14 16
14 16 77 -19z m8518 -153 c97 -105 154 -210 195 -354 33 -115 30 -295 -6 -415
-42 -140 -114 -270 -147 -265 -10 2 -133 112 -274 246 -242 231 -254 244 -242
266 6 12 97 147 202 299 122 180 195 277 206 277 9 0 39 -24 66 -54z m-1056
-203 c304 -289 370 -356 364 -370 -7 -20 -363 -542 -388 -570 -18 -20 -21 -21
-43 -7 -72 47 -194 239 -234 369 -34 107 -39 292 -11 407 32 134 119 308 155
308 7 0 78 -62 157 -137z m-8258 -224 c174 -88 317 -163 317 -167 0 -17 -213
-678 -221 -687 -14 -14 -109 38 -194 106 -184 146 -295 379 -295 618 0 144 32
291 63 291 7 0 156 -72 330 -161z m770 -315 c166 -52 317 -100 335 -105 43
-14 42 -37 -7 -118 -103 -174 -277 -306 -478 -363 -104 -30 -302 -32 -410 -5
-40 11 -77 25 -83 32 -9 11 24 84 146 322 163 320 170 333 186 333 5 0 145
-43 311 -96z m8276 -114 c156 -106 285 -199 288 -207 12 -31 -132 -151 -254
-212 -116 -58 -201 -76 -358 -75 -129 0 -147 3 -232 31 -98 32 -207 89 -237
122 -18 20 -17 21 60 103 324 343 420 439 435 435 9 -2 143 -91 298 -197z"/>
</g>
</svg>
